<svg width="66" height="90" viewBox="0 0 66 90" fill="none" xmlns="http://www.w3.org/2000/svg">
<path d="M32.0974 57.3105L32.8639 57.3118L42.312 57.3347C43.3331 57.3364 44.1643 56.5125 44.167 55.4887L44.1959 44.4486C44.1991 43.4275 43.3737 42.5961 42.3501 42.5935L23.4951 42.5463C22.4743 42.5441 21.6431 43.3721 21.6403 44.393L21.6108 55.4333C21.608 56.4558 22.4332 57.2853 23.457 57.2889L25.187 57.2926L36.7434 45.7335C37.7005 44.7766 39.252 44.7766 40.2091 45.7335C41.1656 46.6902 41.1656 48.242 40.2091 49.1968L32.0974 57.3105Z" fill="#004F98"/>
<path d="M48.1842 42.6226C47.4257 42.6226 46.8099 42.007 46.8099 41.2463C46.8099 40.4882 47.4257 39.872 48.1842 39.872C48.9424 39.872 49.5579 40.4882 49.5579 41.2463C49.5579 42.007 48.9424 42.6226 48.1842 42.6226ZM48.1842 46.3914C47.4257 46.3914 46.8099 45.7762 46.8099 45.0154C46.8099 44.2563 47.4257 43.6404 48.1842 43.6404C48.9424 43.6404 49.5579 44.2563 49.5579 45.0154C49.5579 45.7762 48.9424 46.3914 48.1842 46.3914ZM44.1672 55.4888C44.1645 56.5126 43.3333 57.3366 42.3122 57.3349L32.8641 57.312L32.0976 57.3107L40.2093 49.1969C41.1658 48.2421 41.1658 46.6903 40.2093 45.7337C39.2522 44.7767 37.7007 44.7767 36.7436 45.7337L25.1872 57.2928L23.4573 57.2891C22.4334 57.2855 21.6082 56.456 21.6111 55.4334L21.6406 44.3932C21.6433 43.3722 22.4745 42.5443 23.4953 42.5464L42.3503 42.5937C43.3739 42.5962 44.1993 43.4276 44.1962 44.4487L44.1672 55.4888ZM14.6308 35.5813C13.4905 35.5752 12.56 36.5002 12.56 37.6423L12.4959 63.2361C12.4929 64.3781 13.4147 65.3043 14.5581 65.3073L51.1766 65.3979C52.3198 65.4035 53.248 64.4789 53.2504 63.3353L53.3147 37.7422C53.3175 36.6001 52.3927 35.6731 51.2497 35.6687L14.6308 35.5813Z" fill="#9DD0FF"/>
<path d="M4.85054 35.6538C4.36361 35.6538 3.96403 36.0476 3.96403 36.5377L3.9026 61.5385C3.8996 62.0284 4.29647 62.4249 4.7864 62.4279L9.90543 62.4392C10.3959 62.4426 10.7924 62.0459 10.7924 61.5558L10.8564 36.5559C10.8564 36.0654 10.4596 35.6685 9.96957 35.666L4.85054 35.6538Z" fill="#9DD0FF"/>
<path d="M7.41422 67.7298C9.21745 67.7333 10.6784 69.2045 10.6756 71.0069C10.6728 72.1489 11.5947 73.076 12.7374 73.0803C13.8782 73.0838 14.8058 72.1588 14.8087 71.0163C14.8204 66.9331 11.507 63.6037 7.42339 63.595C3.33975 63.5859 0.0116163 66.898 1.95542e-05 70.98C-0.0092865 75.0636 3.30424 78.3943 7.38788 78.404C8.52909 78.4071 9.45612 77.482 9.45912 76.3418C9.46227 75.1985 8.53739 74.2717 7.39704 74.2691C5.59425 74.2647 4.13005 72.7943 4.13563 70.9921C4.13907 69.1863 5.612 67.7233 7.41422 67.7298Z" fill="#9DD0FF"/>
<path d="M56.0418 35.3851C55.5518 35.3851 55.1554 35.779 55.152 36.269L55.0908 61.2716C55.0908 61.7598 55.4877 62.1583 55.975 62.1602L61.0968 62.1714C61.5837 62.1731 61.9836 61.7771 61.9836 61.2889L62.0422 36.2872C62.0477 35.7967 61.6509 35.3998 61.1608 35.3998L56.0418 35.3851Z" fill="#9DD0FF"/>
<path d="M58.5852 74.3963C57.4448 74.3916 56.5174 75.3148 56.5142 76.4581C56.5118 77.5989 57.4362 78.5261 58.5734 78.5295C62.6571 78.5408 65.9879 75.2256 65.9999 71.1436C66.0087 67.06 62.6953 63.7289 58.6117 63.7206C54.531 63.7114 51.1993 67.0249 51.1912 71.1086C51.1882 72.2489 52.11 73.1768 53.2502 73.1794C54.3937 73.1824 55.3212 72.2588 55.3242 71.1169C55.3268 69.3145 56.7997 67.8502 58.6029 67.8545C60.4057 67.8589 61.8696 69.3293 61.8638 71.1332C61.8605 72.9376 60.3875 74.3999 58.5852 74.3963Z" fill="#9DD0FF"/>
<path d="M21.6752 67.2949C21.1883 67.2941 20.7912 67.6901 20.7884 68.177L20.7595 79.7947C20.7595 80.2842 21.1558 80.6806 21.6433 80.6819L28.9295 80.6992C29.4193 80.7009 29.8163 80.3051 29.8163 79.8154L29.8453 68.2005C29.8453 67.7108 29.4515 67.314 28.9619 67.3123L21.6752 67.2949Z" fill="#9DD0FF"/>
<path d="M37.1318 67.3331C36.6414 67.3314 36.245 67.727 36.245 68.2165L36.2129 79.832C36.2129 80.3198 36.6066 80.7201 37.0998 80.7201L44.383 80.7393C44.8733 80.741 45.2697 80.345 45.2727 79.8549L45.2992 68.2385C45.3018 67.75 44.9053 67.353 44.4148 67.3521L37.1318 67.3331Z" fill="#9DD0FF"/>
<path d="M18.1547 82.8392C17.6672 82.8375 17.2677 83.4574 17.2677 84.2229L17.2561 88.5388C17.2531 89.3039 17.65 89.9255 18.1369 89.9272L29.3582 89.9546C29.8512 89.9546 30.248 89.3364 30.2507 88.5708L30.2597 84.2554C30.2623 83.4912 29.8658 82.8681 29.3785 82.8665L18.1547 82.8392Z" fill="#9DD0FF"/>
<path d="M36.5629 82.8844C36.0728 82.8827 35.6761 83.5024 35.6735 84.27L35.6643 88.5833C35.6613 89.3476 36.055 89.9722 36.5457 89.9722L47.7663 90C48.2567 90.0017 48.6533 89.3801 48.6561 88.6145L48.668 84.3012C48.671 83.5344 48.2742 82.9135 47.7867 82.9122L36.5629 82.8844Z" fill="#9DD0FF"/>
<path d="M50.2019 24.633V25.4915H16.5067V24.633H50.2019ZM44.4412 14.1464C46.104 14.1464 47.4514 15.492 47.4514 17.1547C47.4514 18.8167 46.104 20.1632 44.4412 20.1632C42.7814 20.1632 41.4341 18.8167 41.4341 17.1547C41.4341 15.492 42.7814 14.1464 44.4412 14.1464ZM21.9228 14.1464C23.5826 14.1464 24.93 15.492 24.93 17.1547C24.93 18.8167 23.5826 20.1632 21.9228 20.1632C20.2602 20.1632 18.9157 18.8167 18.9157 17.1547C18.9157 15.492 20.2602 14.1464 21.9228 14.1464ZM24.4807 0.362453L23.693 0.359882C23.2035 0.359882 22.8072 0.753745 22.8036 1.24325L22.7925 5.77071L18.0173 5.75896H17.6764C16.3926 5.75624 15.3512 6.79437 15.3455 8.07761L15.2901 31.3874C15.2845 32.6707 16.3225 33.7144 17.6061 33.7175L48.8109 33.7937C50.0946 33.7958 51.1356 32.76 51.1381 31.4745L51.1968 8.16509C51.1993 6.88185 50.1613 5.84129 48.8775 5.83771L47.9032 5.83513L43.7616 5.82297L43.7733 1.29621C43.7733 0.806134 43.3767 0.4097 42.8898 0.408411L42.1022 0.405406C41.6117 0.403686 41.2123 0.80013 41.2123 1.29049L41.2006 5.81696L25.3533 5.77715L25.3649 1.25155C25.3649 0.761192 24.9681 0.362453 24.4807 0.362453Z" fill="#9DD0FF"/>
<path d="M8.06509 15.1367L8.04175 24.291C8.04175 24.7814 8.4379 25.1797 8.92554 25.1797L12.3732 25.1887V14.2633L8.95503 14.2529C8.46453 14.2512 8.06509 14.6479 8.06509 15.1367Z" fill="#9DD0FF"/>
<path d="M12.373 14.2631V25.1885L13.3565 25.1907C13.846 25.1907 14.2423 24.796 14.2423 24.3073L14.2662 15.1513C14.2689 14.6625 13.8723 14.2649 13.382 14.2649L12.373 14.2631Z" fill="#004F98"/>
<path d="M54.3445 14.2558V25.1807L57.7627 25.1907C58.253 25.1907 58.6522 24.7947 58.6522 24.3073L58.676 15.1513C58.676 14.6625 58.2794 14.2649 57.7916 14.2631L54.3445 14.2558Z" fill="#9DD0FF"/>
<path d="M52.4743 15.1366L52.4509 24.2926C52.4479 24.7805 52.8448 25.1795 53.3352 25.1795L54.3443 25.1807V14.2558L53.3612 14.2528C52.8713 14.2528 52.4743 14.6462 52.4743 15.1366Z" fill="#004F98"/>
<path d="M18.9158 17.1547C18.9158 18.8166 20.2603 20.1631 21.9229 20.1631C23.5827 20.1631 24.9301 18.8166 24.9301 17.1547C24.9301 15.4919 23.5827 14.1464 21.9229 14.1464C20.2603 14.1464 18.9158 15.4919 18.9158 17.1547Z" fill="white"/>
<path d="M41.4341 17.1547C41.4341 18.8166 42.7815 20.1631 44.4412 20.1631C46.104 20.1631 47.4514 18.8166 47.4514 17.1547C47.4514 15.4919 46.104 14.1464 44.4412 14.1464C42.7815 14.1464 41.4341 15.4919 41.4341 17.1547Z" fill="white"/>
<path d="M16.5068 25.4915H50.2021V24.6328H16.5068V25.4915Z" fill="white"/>
<path d="M46.8096 41.2463C46.8096 42.0069 47.4253 42.6226 48.1838 42.6226C48.9421 42.6226 49.5575 42.0069 49.5575 41.2463C49.5575 40.4882 48.9421 39.872 48.1838 39.872C47.4253 39.872 46.8096 40.4882 46.8096 41.2463Z" fill="#004F98"/>
<path d="M46.8096 45.0154C46.8096 45.7762 47.4253 46.3914 48.1838 46.3914C48.9421 46.3914 49.5575 45.7762 49.5575 45.0154C49.5575 44.2563 48.9421 43.6404 48.1838 43.6404C47.4253 43.6404 46.8096 44.2563 46.8096 45.0154Z" fill="#004F98"/>
</svg>
